<svg viewBox="0 0 800 600" xmlns="http://www.w3.org/2000/svg">
  <defs>
    <linearGradient id="dashboardBg" x1="0%" y1="0%" x2="100%" y2="100%">
      <stop offset="0%" style="stop-color:#f8fafc"/>
      <stop offset="100%" style="stop-color:#f1f5f9"/>
    </linearGradient>
    <linearGradient id="sidebarGradient" x1="0%" y1="0%" x2="100%" y2="100%">
      <stop offset="0%" style="stop-color:#10b981"/>
      <stop offset="100%" style="stop-color:#059669"/>
    </linearGradient>
    <linearGradient id="chartGradient" x1="0%" y1="100%" x2="0%" y2="0%">
      <stop offset="0%" style="stop-color:#10b981;stop-opacity:0.1"/>
      <stop offset="100%" style="stop-color:#10b981;stop-opacity:0.6"/>
    </linearGradient>
  </defs>
  
  <!-- Main background -->
  <rect width="100%" height="100%" fill="url(#dashboardBg)"/>
  
  <!-- Sidebar -->
  <rect x="0" y="0" width="200" height="600" fill="url(#sidebarGradient)"/>
  
  <!-- Sidebar items -->
  <rect x="20" y="30" width="160" height="40" rx="8" fill="white" opacity="0.2"/>
  <rect x="20" y="80" width="160" height="30" rx="6" fill="white" opacity="0.1"/>
  <rect x="20" y="120" width="160" height="30" rx="6" fill="white" opacity="0.1"/>
  <rect x="20" y="160" width="160" height="30" rx="6" fill="white" opacity="0.1"/>
  
  <!-- Main content area -->
  <rect x="220" y="20" width="560" height="80" rx="12" fill="white" stroke="#e2e8f0" stroke-width="1"/>
  
  <!-- Stats cards -->
  <rect x="240" y="120" width="160" height="100" rx="8" fill="white" stroke="#e2e8f0" stroke-width="1"/>
  <rect x="420" y="120" width="160" height="100" rx="8" fill="white" stroke="#e2e8f0" stroke-width="1"/>
  <rect x="600" y="120" width="160" height="100" rx="8" fill="white" stroke="#e2e8f0" stroke-width="1"/>
  
  <!-- Chart area -->
  <rect x="240" y="240" width="520" height="280" rx="12" fill="white" stroke="#e2e8f0" stroke-width="1"/>
  
  <!-- Sample chart -->
  <path d="M280,450 L320,420 L360,440 L400,380 L440,400 L480,360 L520,380 L560,340 L600,360 L640,320 L680,340 L720,300" 
        stroke="#10b981" stroke-width="3" fill="none"/>
  <path d="M280,450 L320,420 L360,440 L400,380 L440,400 L480,360 L520,380 L560,340 L600,360 L640,320 L680,340 L720,300 L720,480 L280,480 Z" 
        fill="url(#chartGradient)"/>
  
  <!-- Chart points -->
  <circle cx="320" cy="420" r="4" fill="#10b981"/>
  <circle cx="400" cy="380" r="4" fill="#10b981"/>
  <circle cx="520" cy="380" r="4" fill="#10b981"/>
  <circle cx="640" cy="320" r="4" fill="#10b981"/>
  <circle cx="720" cy="300" r="4" fill="#10b981"/>
</svg>
