<svg viewBox="0 0 500 300" xmlns="http://www.w3.org/2000/svg">
  <defs>
    <linearGradient id="authBg" x1="0%" y1="0%" x2="100%" y2="100%">
      <stop offset="0%" style="stop-color:#f0fdf4"/>
      <stop offset="50%" style="stop-color:#ecfdf5"/>
      <stop offset="100%" style="stop-color:#d1fae5"/>
    </linearGradient>
    <linearGradient id="decorGradient" x1="0%" y1="0%" x2="100%" y2="100%">
      <stop offset="0%" style="stop-color:#10b981;stop-opacity:0.3"/>
      <stop offset="100%" style="stop-color:#059669;stop-opacity:0.1"/>
    </linearGradient>
  </defs>
  
  <!-- Background -->
  <rect width="100%" height="100%" fill="url(#authBg)"/>
  
  <!-- Decorative circles -->
  <circle cx="100" cy="80" r="40" fill="url(#decorGradient)"/>
  <circle cx="400" cy="200" r="60" fill="url(#decorGradient)" opacity="0.5"/>
  <circle cx="450" cy="50" r="25" fill="#34d399" opacity="0.3"/>
  <circle cx="50" cy="250" r="30" fill="#6ee7b7" opacity="0.4"/>
  
  <!-- Abstract shapes -->
  <path d="M0,150 Q100,120 200,150 T400,150 Q450,130 500,150 L500,300 L0,300 Z" fill="#10b981" opacity="0.05"/>
  
  <!-- Floating elements -->
  <rect x="80" y="40" width="60" height="60" rx="12" fill="white" stroke="#10b981" stroke-width="2" opacity="0.8" transform="rotate(15 110 70)"/>
  <rect x="350" y="80" width="40" height="40" rx="8" fill="white" stroke="#059669" stroke-width="2" opacity="0.6" transform="rotate(-20 370 100)"/>
  
  <!-- Grid pattern (subtle) -->
  <defs>
    <pattern id="authGrid" width="30" height="30" patternUnits="userSpaceOnUse">
      <circle cx="15" cy="15" r="1" fill="#10b981" opacity="0.1"/>
    </pattern>
  </defs>
  <rect width="100%" height="100%" fill="url(#authGrid)"/>
</svg>
