<svg width="400" height="300" viewBox="0 0 400 300" fill="none" xmlns="http://www.w3.org/2000/svg">
  <!-- Background -->
  <rect width="400" height="300" fill="url(#bg-gradient)"/>
  
  <!-- Floating Elements -->
  <circle cx="350" cy="50" r="20" fill="#22c55e" opacity="0.1"/>
  <circle cx="50" cy="80" r="15" fill="#22c55e" opacity="0.15"/>
  <circle cx="320" cy="250" r="12" fill="#22c55e" opacity="0.2"/>
  
  <!-- Main Illustration -->
  <!-- Laptop -->
  <rect x="150" y="180" width="100" height="70" rx="5" fill="#374151"/>
  <rect x="155" y="185" width="90" height="50" rx="3" fill="#1f2937"/>
  <rect x="160" y="190" width="80" height="35" fill="#22c55e"/>
  
  <!-- Laptop Screen Content -->
  <rect x="165" y="195" width="15" height="8" rx="2" fill="white" opacity="0.9"/>
  <rect x="185" y="195" width="25" height="3" rx="1" fill="white" opacity="0.7"/>
  <rect x="185" y="200" width="20" height="3" rx="1" fill="white" opacity="0.7"/>
  <rect x="185" y="205" width="30" height="3" rx="1" fill="white" opacity="0.7"/>
  
  <rect x="165" y="215" width="50" height="2" rx="1" fill="white" opacity="0.5"/>
  <rect x="220" y="215" width="15" height="2" rx="1" fill="white" opacity="0.5"/>
  
  <!-- Books Stack -->
  <rect x="80" y="200" width="50" height="8" fill="#3b82f6"/>
  <rect x="85" y="192" width="45" height="8" fill="#ef4444"/>
  <rect x="90" y="184" width="40" height="8" fill="#f59e0b"/>
  
  <!-- Person Studying -->
  <!-- Head -->
  <circle cx="200" cy="120" r="25" fill="#fbbf24"/>
  
  <!-- Hair -->
  <path d="M180 110 Q200 95 220 110 Q215 100 200 100 Q185 100 180 110" fill="#92400e"/>
  
  <!-- Body -->
  <ellipse cx="200" cy="160" rx="20" ry="25" fill="#22c55e"/>
  
  <!-- Arms -->
  <ellipse cx="175" cy="155" rx="8" ry="20" fill="#fbbf24" transform="rotate(-20 175 155)"/>
  <ellipse cx="225" cy="155" rx="8" ry="20" fill="#fbbf24" transform="rotate(20 225 155)"/>
  
  <!-- Study Materials -->
  <!-- Notebook -->
  <rect x="120" y="140" width="30" height="40" rx="3" fill="white" stroke="#e5e7eb" stroke-width="2"/>
  <line x1="125" y1="150" x2="145" y2="150" stroke="#9ca3af" stroke-width="1"/>
  <line x1="125" y1="155" x2="140" y2="155" stroke="#9ca3af" stroke-width="1"/>
  <line x1="125" y1="160" x2="145" y2="160" stroke="#9ca3af" stroke-width="1"/>
  
  <!-- Pen -->
  <rect x="160" y="145" width="2" height="20" fill="#3b82f6"/>
  <circle cx="161" cy="145" r="1.5" fill="#1d4ed8"/>
  
  <!-- Light Rays -->
  <path d="M200 80 L190 90 L210 90 Z" fill="#fef3c7" opacity="0.6"/>
  <path d="M200 80 L185 95 L215 95 Z" fill="#fef3c7" opacity="0.4"/>
  <path d="M200 80 L180 100 L220 100 Z" fill="#fef3c7" opacity="0.2"/>
  
  <!-- Floating Icons -->
  <!-- Graduation Cap -->
  <g transform="translate(300, 100)">
    <rect x="0" y="5" width="30" height="3" fill="#1f2937"/>
    <rect x="10" y="0" width="10" height="8" fill="#1f2937"/>
    <polygon points="5,8 25,8 20,15 10,15" fill="#22c55e"/>
  </g>
  
  <!-- Certificate -->
  <g transform="translate(60, 120)">
    <rect x="0" y="0" width="25" height="20" fill="white" stroke="#22c55e" stroke-width="2"/>
    <circle cx="12.5" cy="10" r="3" fill="#22c55e" opacity="0.3"/>
    <line x1="5" y1="15" x2="20" y2="15" stroke="#22c55e" stroke-width="1"/>
  </g>
  
  <!-- Clock -->
  <g transform="translate(320, 180)">
    <circle cx="12" cy="12" r="12" fill="white" stroke="#6b7280" stroke-width="2"/>
    <circle cx="12" cy="12" r="1" fill="#6b7280"/>
    <line x1="12" y1="12" x2="12" y2="6" stroke="#6b7280" stroke-width="2"/>
    <line x1="12" y1="12" x2="16" y2="12" stroke="#6b7280" stroke-width="1"/>
  </g>
  
  <!-- Definitions -->
  <defs>
    <linearGradient id="bg-gradient" x1="0%" y1="0%" x2="100%" y2="100%">
      <stop offset="0%" style="stop-color:#f0fdf4"/>
      <stop offset="100%" style="stop-color:#dcfce7"/>
    </linearGradient>
  </defs>
</svg>
